<?xml version="1.0" encoding="UTF-8" standalone="no"?>
<svg width="129px" height="91px" viewBox="0 0 129 91" version="1.1" xmlns="http://www.w3.org/2000/svg" xmlns:xlink="http://www.w3.org/1999/xlink" xmlns:sketch="http://www.bohemiancoding.com/sketch/ns">
    <!-- Generator: Sketch 3.3.3 (12072) - http://www.bohemiancoding.com/sketch -->
    <title>Group</title>
    <desc>Created with Sketch.</desc>
    <defs></defs>
    <g id="Page-1" stroke="none" stroke-width="1" fill="none" fill-rule="evenodd" sketch:type="MSPage">
        <g id="Group" sketch:type="MSLayerGroup" transform="translate(-1.000000, 0.000000)" fill="#070707">
            <path d="M15.5,27 C22.9558441,27 29,20.9558441 29,13.5 C29,6.04415588 22.9558441,0 15.5,0 C8.04415588,0 2,6.04415588 2,13.5 C2,20.9558441 8.04415588,27 15.5,27 Z M83.5,27 C90.9558441,27 97,20.9558441 97,13.5 C97,6.04415588 90.9558441,0 83.5,0 C76.0441559,0 70,6.04415588 70,13.5 C70,20.9558441 76.0441559,27 83.5,27 Z M49.5,91 C57.5081289,91 64,84.5081289 64,76.5 C64,68.4918711 57.5081289,62 49.5,62 C41.4918711,62 35,68.4918711 35,76.5 C35,84.5081289 41.4918711,91 49.5,91 Z M69,90.5 L69,62.5 L84.5,62.5 C84.5,62.5 96,64 97,74.5 C96.8372214,79.7089159 97.1627786,84.7910841 97,90 C96.996112,90.1244174 96.5,90.5 96.5,90.5 L69,90.5 Z M77,37.5 C68.5,47 69,57 69,57 L97,57 L97,29.5 C97,29.5 85.5,28 77,37.5 Z M102,57 C118.844685,57 130,43 130,29 C130,15 118.844685,0.999999956 102,0.999999956 L102,57 Z M34,57 C50.8446848,57 62,43 62,29 C62,15 50.8446849,0.999999956 34,0.999999956 L34,57 Z M120,62.5 C120,62.5 130,64.9999997 130,76.5 C130,86.499999 119.5,90.4722226 119.5,90.4722226 L102,90.4722233 L102,62.5 L120,62.5 Z M9,37.5 C0.5,47 1,57 1,57 L29,57 L29,29.5 C29,29.5 17.5,28 9,37.5 Z M1,90.5 C1.00831768,81.0535319 1,62.5 1,62.5 C1,62.5 15.5496099,62.5554239 24,62.5 C24.5,62.4967206 29.5,64 29.5,69.5 C29.5,75 24.5,76.517911 24.5,76.517911 C24.5,76.517911 29.5,77.5 29.5,83.5 C29.5,89.5 24,90.5000004 23.5,90.5 C23.5,90.5 0.99992903,90.5806012 1,90.5 Z" id="Oval-1" sketch:type="MSShapeGroup"></path>
        </g>
    </g>
</svg>