<svg version="1.1" xmlns="http://www.w3.org/2000/svg" xmlns:xlink="http://www.w3.org/1999/xlink" x="0px" y="0px" viewBox="0 0 417.798 100" enable-background="new 0 0 417.798 100" xml:space="preserve">
<title>53W53 by Jean Nouvel</title>
<symbol id="Menu" viewBox="-868 -60 1282 120">
	<polygon fill="#FFFFFF" points="-374,-60 -868,-60 -868,60 -374,60 	"></polygon>
	<polygon fill="#FFFFFF" points="-216,-60 -374,-60 -374,60 -216,60 	"></polygon>
	<g>
		<text transform="matrix(1 0 0 -1 -333.1793 -5.0002)" fill="#FFFFFF" font-family="'TeeFranklin-Light'" font-size="15">Introduction</text>
	</g>
	<polygon fill="#FFFFFF" points="-59,-60 -216,-60 -216,60 -59,60 	"></polygon>
	<text transform="matrix(1 0 0 -1 -167.0119 -5.0002)" fill="#FFFFFF" font-family="'TeeFranklin-Light'" font-size="15">Floorplans</text>
	<polygon fill="#FFFFFF" points="99,-60 -59,-60 -59,60 99,60 	"></polygon>
	<text transform="matrix(1 0 0 -1 -27.3369 -5.0002)" fill="#FFFFFF" font-family="'TeeFranklin-Light'" font-size="15">Neighborhood</text>
	<polygon fill="#FFFFFF" points="256,-60 99,-60 99,60 256,60 	"></polygon>
	<text transform="matrix(1 0 0 -1 156.3379 -5.0002)" fill="#FFFFFF" font-family="'TeeFranklin-Light'" font-size="15">Nouvel</text>
	<polygon fill="#FFFFFF" points="413,-60 256,-60 256,60 413,60 	"></polygon>
	<text transform="matrix(1 0 0 -1 310.4678 -5.0002)" fill="#FFFFFF" font-family="'TeeFranklin-Light'" font-size="15">Despot</text>
	<g>
		<path fill="#FFFFFF" d="M-818.76,4.633c-3.021,0-4.977-1.633-5.9-2.633h-0.068l0.688,9h11.793l0.137,1h-13.166L-826.1,0.082
			l1.338-0.247c0.89,1.817,2.98,3.391,5.931,3.391c3.603,0,6.412-2.558,6.412-6.361c0-4.425-2.881-6.92-7.136-6.92
			c-3.252,0-5.758,1.855-6.512,4.599l-1.438-0.444c0.927-3.397,4.255-5.448,7.886-5.448c5.074,0,8.742,3.153,8.742,8.267
			C-810.877,1.476-814.374,4.633-818.76,4.633z"></path>
		<path fill="#FFFFFF" d="M-798,1.198v0.065c3,0.413,4.74,2.643,4.74,5.282c0,4.185-3.565,6.033-7.406,6.033
			c-3.734,0-6.867-1.883-7.966-5.278l1.454-0.376c0.885,2.671,3.291,4.389,6.446,4.389c3.222,0,5.933-1.398,5.933-4.726
			c0-2.709-2.298-4.588-5.795-4.588H-804V1h3.273c4.218,0,6.822-2.406,6.822-5.455c0-3.668-3.394-5.471-7.03-5.471
			c-3.46,0-6.201,1.412-7.095,4.705l-1.479-0.511c1.1-3.772,4.597-5.603,8.604-5.603c4.634,0,8.567,2.29,8.567,6.642
			C-792.337-1.436-795,0.751-798,1.198z"></path>
		<path fill="#FFFFFF" d="M-754.034,4.633c-3.018,0-4.972-1.633-5.901-2.633h-0.067l0.687,9h11.793l0.138,1h-13.164l-0.822-11.918
			l1.334-0.247c0.893,1.817,2.984,3.391,5.934,3.391c3.6,0,6.406-2.558,6.406-6.361c0-4.425-2.877-6.92-7.125-6.92
			c-3.26,0-5.764,1.855-6.516,4.599l-1.438-0.444c0.922-3.397,4.248-5.448,7.883-5.448c5.076,0,8.737,3.153,8.737,8.267
			C-746.155,1.476-749.648,4.633-754.034,4.633z"></path>
		<path fill="#FFFFFF" d="M-733,1.198v0.065c2,0.413,4.6,2.643,4.6,5.282c0,4.185-3.628,6.033-7.469,6.033
			c-3.737,0-6.906-1.883-8.004-5.278l1.435-0.376c0.891,2.671,3.285,4.389,6.44,4.389c3.223,0,5.93-1.398,5.93-4.726
			c0-2.709-2.302-4.588-5.799-4.588H-738V1h1.998c4.213,0,6.826-2.406,6.826-5.455c0-3.668-3.397-5.471-7.029-5.471
			c-3.467,0-6.211,1.412-7.1,4.705l-1.473-0.511c1.094-3.772,4.591-5.603,8.605-5.603c4.62,0,8.697,2.29,8.697,6.642
			C-727.475-1.436-730,0.751-733,1.198z"></path>
		<polygon fill="#FFFFFF" points="-771.982,-8.785 -779.078,12 -780.626,12 -772.538,-10 -771.441,-10 -763.289,12 -764.832,12 		
			"></polygon>
		<polygon fill="#FFFFFF" points="-782.258,-8.668 -790.195,12 -791.744,12 -782.813,-10 -781.717,-10 -777.863,0.35 -778.6,2.13 		
			"></polygon>
	</g>
	<g>
		
			<line fill="none" stroke="#FFFFFF" stroke-width="0.166" stroke-miterlimit="10" x1="413.668" y1="5.065" x2="413.668" y2="-4.93"></line>
		
			<line fill="none" stroke="#FFFFFF" stroke-width="0.166" stroke-miterlimit="10" x1="256.334" y1="5.065" x2="256.334" y2="-4.93"></line>
		<line fill="none" stroke="#FFFFFF" stroke-width="0.166" stroke-miterlimit="10" x1="99.001" y1="5.065" x2="99.001" y2="-4.93"></line>
		
			<line fill="none" stroke="#FFFFFF" stroke-width="0.166" stroke-miterlimit="10" x1="-58.333" y1="5.065" x2="-58.333" y2="-4.93"></line>
		
			<line fill="none" stroke="#FFFFFF" stroke-width="0.166" stroke-miterlimit="10" x1="-215.666" y1="5.065" x2="-215.666" y2="-4.93"></line>
		<line fill="none" stroke="#FFFFFF" stroke-width="0.166" stroke-miterlimit="10" x1="-373" y1="5.065" x2="-373" y2="-4.93"></line>
	</g>
	<polygon display="none" fill="none" points="-868,60 414,60 414,-60 -868,-60 	"></polygon>
</symbol>
<symbol id="Menu_2" viewBox="-868 -60 1282 120">
	<polygon fill="#FFFFFF" points="-374,-60 -868,-60 -868,60 -374,60 	"></polygon>
	<polygon fill="#FFFFFF" points="-216,-60 -374,-60 -374,60 -216,60 	"></polygon>
	<g>
		<text transform="matrix(1 0 0 -1 -334.0043 -5.0002)" fill="#FFFFFF" font-family="'TeeFranklin-Light'" font-size="15">Introduction</text>
	</g>
	<polygon fill="#FFFFFF" points="-59,-60 -216,-60 -216,60 -59,60 	"></polygon>
	<text transform="matrix(1 0 0 -1 -167.6869 -5.0002)" fill="#FFFFFF" font-family="'TeeFranklin-Light'" font-size="15">Floorplans</text>
	<polygon fill="#FFFFFF" points="99,-60 -59,-60 -59,60 99,60 	"></polygon>
	<text transform="matrix(1 0 0 -1 -28.1619 -5.0002)" fill="#FFFFFF" font-family="'TeeFranklin-Light'" font-size="15">Neighborhood</text>
	<polygon fill="#FFFFFF" points="256,-60 99,-60 99,60 256,60 	"></polygon>
	<text transform="matrix(1 0 0 -1 155.9629 -5.0002)" fill="#FFFFFF" font-family="'TeeFranklin-Light'" font-size="15">Nouvel</text>
	<polygon fill="#FFFFFF" points="413,-60 256,-60 256,60 413,60 	"></polygon>
	<text transform="matrix(1 0 0 -1 310.0928 -5.0002)" fill="#FFFFFF" font-family="'TeeFranklin-Light'" font-size="15">Despot</text>
	<g>
		<path fill="#FFFFFF" d="M-818.76,4.633c-3.021,0-4.977-1.633-5.9-2.633h-0.068l0.688,9h11.793l0.137,1h-13.166L-826.1,0.082
			l1.338-0.247c0.89,1.817,2.98,3.391,5.931,3.391c3.603,0,6.412-2.558,6.412-6.361c0-4.425-2.881-6.92-7.136-6.92
			c-3.252,0-5.758,1.855-6.512,4.599l-1.438-0.444c0.927-3.397,4.255-5.448,7.886-5.448c5.074,0,8.742,3.153,8.742,8.267
			C-810.877,1.476-814.374,4.633-818.76,4.633z"></path>
		<path fill="#FFFFFF" d="M-798,1.198v0.065c3,0.413,4.74,2.643,4.74,5.282c0,4.185-3.565,6.033-7.406,6.033
			c-3.734,0-6.867-1.883-7.966-5.278l1.454-0.376c0.885,2.671,3.291,4.389,6.446,4.389c3.222,0,5.933-1.398,5.933-4.726
			c0-2.709-2.298-4.588-5.795-4.588H-804V1h3.273c4.218,0,6.822-2.406,6.822-5.455c0-3.668-3.394-5.471-7.03-5.471
			c-3.46,0-6.201,1.412-7.095,4.705l-1.479-0.511c1.1-3.772,4.597-5.603,8.604-5.603c4.634,0,8.567,2.29,8.567,6.642
			C-792.337-1.436-795,0.751-798,1.198z"></path>
		<path fill="#FFFFFF" d="M-754.034,4.633c-3.018,0-4.972-1.633-5.901-2.633h-0.067l0.687,9h11.793l0.138,1h-13.164l-0.822-11.918
			l1.334-0.247c0.893,1.817,2.984,3.391,5.934,3.391c3.6,0,6.406-2.558,6.406-6.361c0-4.425-2.877-6.92-7.125-6.92
			c-3.26,0-5.764,1.855-6.516,4.599l-1.438-0.444c0.922-3.397,4.248-5.448,7.883-5.448c5.076,0,8.737,3.153,8.737,8.267
			C-746.155,1.476-749.648,4.633-754.034,4.633z"></path>
		<path fill="#FFFFFF" d="M-733,1.198v0.065c2,0.413,4.6,2.643,4.6,5.282c0,4.185-3.628,6.033-7.469,6.033
			c-3.737,0-6.906-1.883-8.004-5.278l1.435-0.376c0.891,2.671,3.285,4.389,6.44,4.389c3.223,0,5.93-1.398,5.93-4.726
			c0-2.709-2.302-4.588-5.799-4.588H-738V1h1.998c4.213,0,6.826-2.406,6.826-5.455c0-3.668-3.397-5.471-7.029-5.471
			c-3.467,0-6.211,1.412-7.1,4.705l-1.473-0.511c1.094-3.772,4.591-5.603,8.605-5.603c4.62,0,8.697,2.29,8.697,6.642
			C-727.475-1.436-730,0.751-733,1.198z"></path>
		<polygon fill="#FFFFFF" points="-771.982,-8.785 -779.078,12 -780.626,12 -772.538,-10 -771.441,-10 -763.289,12 -764.832,12 		
			"></polygon>
		<polygon fill="#FFFFFF" points="-782.258,-8.668 -790.195,12 -791.744,12 -782.813,-10 -781.717,-10 -777.863,0.35 -778.6,2.13 		
			"></polygon>
	</g>
	<g>
		
			<line fill="none" stroke="#FFFFFF" stroke-width="0.166" stroke-miterlimit="10" x1="413.668" y1="5.065" x2="413.668" y2="-4.93"></line>
		
			<line fill="none" stroke="#FFFFFF" stroke-width="0.166" stroke-miterlimit="10" x1="256.334" y1="5.065" x2="256.334" y2="-4.93"></line>
		<line fill="none" stroke="#FFFFFF" stroke-width="0.166" stroke-miterlimit="10" x1="99.001" y1="5.065" x2="99.001" y2="-4.93"></line>
		
			<line fill="none" stroke="#FFFFFF" stroke-width="0.166" stroke-miterlimit="10" x1="-58.333" y1="5.065" x2="-58.333" y2="-4.93"></line>
		
			<line fill="none" stroke="#FFFFFF" stroke-width="0.166" stroke-miterlimit="10" x1="-215.666" y1="5.065" x2="-215.666" y2="-4.93"></line>
		<line fill="none" stroke="#FFFFFF" stroke-width="0.166" stroke-miterlimit="10" x1="-373" y1="5.065" x2="-373" y2="-4.93"></line>
	</g>
	<polygon display="none" fill="none" points="-868,60 414,60 414,-60 -868,-60 	"></polygon>
</symbol>
<symbol id="Menu_3" viewBox="-868 -60 1282 120">
	<polygon fill="#FFFFFF" points="-374,-60 -868,-60 -868,60 -374,60 	"></polygon>
	<polygon fill="#FFFFFF" points="-216,-60 -374,-60 -374,60 -216,60 	"></polygon>
	<g>
		<text transform="matrix(1 0 0 -1 -334.0043 -5.0002)" fill="#FFFFFF" font-family="'TeeFranklin-Light'" font-size="15">Introduction</text>
	</g>
	<polygon fill="#FFFFFF" points="-59,-60 -216,-60 -216,60 -59,60 	"></polygon>
	<text transform="matrix(1 0 0 -1 -167.6869 -5.0002)" fill="#FFFFFF" font-family="'TeeFranklin-Light'" font-size="15">Floorplans</text>
	<polygon fill="#FFFFFF" points="99,-60 -59,-60 -59,60 99,60 	"></polygon>
	<text transform="matrix(1 0 0 -1 -28.1619 -5.0002)" fill="#FFFFFF" font-family="'TeeFranklin-Light'" font-size="15">Neighborhood</text>
	<polygon fill="#FFFFFF" points="256,-60 99,-60 99,60 256,60 	"></polygon>
	<text transform="matrix(1 0 0 -1 155.9629 -5.0002)" fill="#FFFFFF" font-family="'TeeFranklin-Light'" font-size="15">Nouvel</text>
	<polygon fill="#FFFFFF" points="413,-60 256,-60 256,60 413,60 	"></polygon>
	<text transform="matrix(1 0 0 -1 310.0928 -5.0002)" fill="#FFFFFF" font-family="'TeeFranklin-Light'" font-size="15">Despot</text>
	<g>
		<path fill="#FFFFFF" d="M-818.76,4.633c-3.021,0-4.977-1.633-5.9-2.633h-0.068l0.688,9h11.793l0.137,1h-13.166L-826.1,0.082
			l1.338-0.247c0.89,1.817,2.98,3.391,5.931,3.391c3.603,0,6.412-2.558,6.412-6.361c0-4.425-2.881-6.92-7.136-6.92
			c-3.252,0-5.758,1.855-6.512,4.599l-1.438-0.444c0.927-3.397,4.255-5.448,7.886-5.448c5.074,0,8.742,3.153,8.742,8.267
			C-810.877,1.476-814.374,4.633-818.76,4.633z"></path>
		<path fill="#FFFFFF" d="M-798,1.198v0.065c3,0.413,4.74,2.643,4.74,5.282c0,4.185-3.565,6.033-7.406,6.033
			c-3.734,0-6.867-1.883-7.966-5.278l1.454-0.376c0.885,2.671,3.291,4.389,6.446,4.389c3.222,0,5.933-1.398,5.933-4.726
			c0-2.709-2.298-4.588-5.795-4.588H-804V1h3.273c4.218,0,6.822-2.406,6.822-5.455c0-3.668-3.394-5.471-7.03-5.471
			c-3.46,0-6.201,1.412-7.095,4.705l-1.479-0.511c1.1-3.772,4.597-5.603,8.604-5.603c4.634,0,8.567,2.29,8.567,6.642
			C-792.337-1.436-795,0.751-798,1.198z"></path>
		<path fill="#FFFFFF" d="M-754.034,4.633c-3.018,0-4.972-1.633-5.901-2.633h-0.067l0.687,9h11.793l0.138,1h-13.164l-0.822-11.918
			l1.334-0.247c0.893,1.817,2.984,3.391,5.934,3.391c3.6,0,6.406-2.558,6.406-6.361c0-4.425-2.877-6.92-7.125-6.92
			c-3.26,0-5.764,1.855-6.516,4.599l-1.438-0.444c0.922-3.397,4.248-5.448,7.883-5.448c5.076,0,8.737,3.153,8.737,8.267
			C-746.155,1.476-749.648,4.633-754.034,4.633z"></path>
		<path fill="#FFFFFF" d="M-733,1.198v0.065c2,0.413,4.6,2.643,4.6,5.282c0,4.185-3.628,6.033-7.469,6.033
			c-3.737,0-6.906-1.883-8.004-5.278l1.435-0.376c0.891,2.671,3.285,4.389,6.44,4.389c3.223,0,5.93-1.398,5.93-4.726
			c0-2.709-2.302-4.588-5.799-4.588H-738V1h1.998c4.213,0,6.826-2.406,6.826-5.455c0-3.668-3.397-5.471-7.029-5.471
			c-3.467,0-6.211,1.412-7.1,4.705l-1.473-0.511c1.094-3.772,4.591-5.603,8.605-5.603c4.62,0,8.697,2.29,8.697,6.642
			C-727.475-1.436-730,0.751-733,1.198z"></path>
		<polygon fill="#FFFFFF" points="-771.982,-8.785 -779.078,12 -780.626,12 -772.538,-10 -771.441,-10 -763.289,12 -764.832,12 		
			"></polygon>
		<polygon fill="#FFFFFF" points="-782.258,-8.668 -790.195,12 -791.744,12 -782.813,-10 -781.717,-10 -777.863,0.35 -778.6,2.13 		
			"></polygon>
	</g>
	<g>
		
			<line fill="none" stroke="#FFFFFF" stroke-width="0.166" stroke-miterlimit="10" x1="413.668" y1="5.065" x2="413.668" y2="-4.93"></line>
		
			<line fill="none" stroke="#FFFFFF" stroke-width="0.166" stroke-miterlimit="10" x1="256.334" y1="5.065" x2="256.334" y2="-4.93"></line>
		<line fill="none" stroke="#FFFFFF" stroke-width="0.166" stroke-miterlimit="10" x1="99.001" y1="5.065" x2="99.001" y2="-4.93"></line>
		
			<line fill="none" stroke="#FFFFFF" stroke-width="0.166" stroke-miterlimit="10" x1="-58.333" y1="5.065" x2="-58.333" y2="-4.93"></line>
		
			<line fill="none" stroke="#FFFFFF" stroke-width="0.166" stroke-miterlimit="10" x1="-215.666" y1="5.065" x2="-215.666" y2="-4.93"></line>
		<line fill="none" stroke="#FFFFFF" stroke-width="0.166" stroke-miterlimit="10" x1="-373" y1="5.065" x2="-373" y2="-4.93"></line>
	</g>
	<polygon display="none" fill="none" points="-868,60 414,60 414,-60 -868,-60 	"></polygon>
</symbol>
<symbol id="Menu_4" viewBox="-868 -60 1282 120">
	<polygon fill="#FFFFFF" points="-374,-60 -868,-60 -868,60 -374,60 	"></polygon>
	<polygon fill="#FFFFFF" points="-216,-60 -374,-60 -374,60 -216,60 	"></polygon>
	<g>
		<text transform="matrix(1 0 0 -1 -334.0043 -5.0002)" fill="#FFFFFF" font-family="'TeeFranklin-Light'" font-size="15">Introduction</text>
	</g>
	<polygon fill="#FFFFFF" points="-59,-60 -216,-60 -216,60 -59,60 	"></polygon>
	<text transform="matrix(1 0 0 -1 -167.6869 -5.0002)" fill="#FFFFFF" font-family="'TeeFranklin-Light'" font-size="15">Floorplans</text>
	<polygon fill="#FFFFFF" points="99,-60 -59,-60 -59,60 99,60 	"></polygon>
	<text transform="matrix(1 0 0 -1 -28.1619 -5.0002)" fill="#FFFFFF" font-family="'TeeFranklin-Light'" font-size="15">Neighborhood</text>
	<polygon fill="#FFFFFF" points="256,-60 99,-60 99,60 256,60 	"></polygon>
	<text transform="matrix(1 0 0 -1 155.9629 -5.0002)" fill="#FFFFFF" font-family="'TeeFranklin-Light'" font-size="15">Nouvel</text>
	<polygon fill="#FFFFFF" points="413,-60 256,-60 256,60 413,60 	"></polygon>
	<text transform="matrix(1 0 0 -1 310.0928 -5.0002)" fill="#FFFFFF" font-family="'TeeFranklin-Light'" font-size="15">Despot</text>
	<g>
		<path fill="#FFFFFF" d="M-818.76,4.633c-3.021,0-4.977-1.633-5.9-2.633h-0.068l0.688,9h11.793l0.137,1h-13.166L-826.1,0.082
			l1.338-0.247c0.89,1.817,2.98,3.391,5.931,3.391c3.603,0,6.412-2.558,6.412-6.361c0-4.425-2.881-6.92-7.136-6.92
			c-3.252,0-5.758,1.855-6.512,4.599l-1.438-0.444c0.927-3.397,4.255-5.448,7.886-5.448c5.074,0,8.742,3.153,8.742,8.267
			C-810.877,1.476-814.374,4.633-818.76,4.633z"></path>
		<path fill="#FFFFFF" d="M-798,1.198v0.065c3,0.413,4.74,2.643,4.74,5.282c0,4.185-3.565,6.033-7.406,6.033
			c-3.734,0-6.867-1.883-7.966-5.278l1.454-0.376c0.885,2.671,3.291,4.389,6.446,4.389c3.222,0,5.933-1.398,5.933-4.726
			c0-2.709-2.298-4.588-5.795-4.588H-804V1h3.273c4.218,0,6.822-2.406,6.822-5.455c0-3.668-3.394-5.471-7.03-5.471
			c-3.46,0-6.201,1.412-7.095,4.705l-1.479-0.511c1.1-3.772,4.597-5.603,8.604-5.603c4.634,0,8.567,2.29,8.567,6.642
			C-792.337-1.436-795,0.751-798,1.198z"></path>
		<path fill="#FFFFFF" d="M-754.034,4.633c-3.018,0-4.972-1.633-5.901-2.633h-0.067l0.687,9h11.793l0.138,1h-13.164l-0.822-11.918
			l1.334-0.247c0.893,1.817,2.984,3.391,5.934,3.391c3.6,0,6.406-2.558,6.406-6.361c0-4.425-2.877-6.92-7.125-6.92
			c-3.26,0-5.764,1.855-6.516,4.599l-1.438-0.444c0.922-3.397,4.248-5.448,7.883-5.448c5.076,0,8.737,3.153,8.737,8.267
			C-746.155,1.476-749.648,4.633-754.034,4.633z"></path>
		<path fill="#FFFFFF" d="M-733,1.198v0.065c2,0.413,4.6,2.643,4.6,5.282c0,4.185-3.628,6.033-7.469,6.033
			c-3.737,0-6.906-1.883-8.004-5.278l1.435-0.376c0.891,2.671,3.285,4.389,6.44,4.389c3.223,0,5.93-1.398,5.93-4.726
			c0-2.709-2.302-4.588-5.799-4.588H-738V1h1.998c4.213,0,6.826-2.406,6.826-5.455c0-3.668-3.397-5.471-7.029-5.471
			c-3.467,0-6.211,1.412-7.1,4.705l-1.473-0.511c1.094-3.772,4.591-5.603,8.605-5.603c4.62,0,8.697,2.29,8.697,6.642
			C-727.475-1.436-730,0.751-733,1.198z"></path>
		<polygon fill="#FFFFFF" points="-771.982,-8.785 -779.078,12 -780.626,12 -772.538,-10 -771.441,-10 -763.289,12 -764.832,12 		
			"></polygon>
		<polygon fill="#FFFFFF" points="-782.258,-8.668 -790.195,12 -791.744,12 -782.813,-10 -781.717,-10 -777.863,0.35 -778.6,2.13 		
			"></polygon>
	</g>
	<g>
		
			<line fill="none" stroke="#FFFFFF" stroke-width="0.166" stroke-miterlimit="10" x1="413.668" y1="5.065" x2="413.668" y2="-4.93"></line>
		
			<line fill="none" stroke="#FFFFFF" stroke-width="0.166" stroke-miterlimit="10" x1="256.334" y1="5.065" x2="256.334" y2="-4.93"></line>
		<line fill="none" stroke="#FFFFFF" stroke-width="0.166" stroke-miterlimit="10" x1="99.001" y1="5.065" x2="99.001" y2="-4.93"></line>
		
			<line fill="none" stroke="#FFFFFF" stroke-width="0.166" stroke-miterlimit="10" x1="-58.333" y1="5.065" x2="-58.333" y2="-4.93"></line>
		
			<line fill="none" stroke="#FFFFFF" stroke-width="0.166" stroke-miterlimit="10" x1="-215.666" y1="5.065" x2="-215.666" y2="-4.93"></line>
		<line fill="none" stroke="#FFFFFF" stroke-width="0.166" stroke-miterlimit="10" x1="-373" y1="5.065" x2="-373" y2="-4.93"></line>
	</g>
	<polygon display="none" fill="none" points="-868,60 414,60 414,-60 -868,-60 	"></polygon>
</symbol>
<g id="Layer_2">
	<g>
		<g>
			<path fill="#FFFFFF" d="M36.546,33.522c-12.624,0-20.797,6.164-24.665,11.325h-0.278L14.471,7.31h49.286l0.579-5.881H9.305
				L5.871,51.733l5.591,1.281c3.714-7.594,12.46-14.042,24.788-14.042c15.05,0,26.793,10.746,26.793,26.641
				c0,18.495-12.035,28.952-29.82,28.952c-13.594,0-24.062-7.737-27.211-19.203L0,77.233C3.866,91.424,17.779,100,32.955,100
				c21.208,0,36.536-13.017,36.536-34.387C69.491,46.557,54.877,33.522,36.546,33.522z"></path>
			<path fill="#FFFFFF" d="M123.943,47.569v-0.281c10.304-1.729,19.495-11.045,19.495-22.072C143.438,7.732,128.376,0,112.332,0
				C96.72,0,83.545,7.869,78.95,22.059l6.039,1.576C88.69,12.466,98.726,5.289,111.91,5.289c13.465,0,24.791,6.307,24.791,20.209
				c0,11.33-9.612,19.638-24.232,19.638H99.013v5.298h12.898c17.627,0,28.504,9.03,28.504,21.775
				c0,15.331-14.181,22.355-29.375,22.355c-14.463,0-25.913-6.153-29.65-19.913l-6.179,2.003C79.804,92.421,94.422,100,111.167,100
				c19.366,0,36.124-9.594,36.124-27.79C147.291,58.601,136.701,49.434,123.943,47.569z"></path>
			<path fill="#FFFFFF" d="M307.049,33.522c-12.608,0-20.782,6.164-24.662,11.325h-0.281L284.98,7.31h49.282l0.576-5.881h-55.016
				l-3.436,50.303l5.576,1.281c3.732-7.594,12.478-14.042,24.794-14.042c15.051,0,26.781,10.746,26.781,26.641
				c0,18.495-12.024,28.952-29.781,28.952c-13.62,0-24.086-7.737-27.229-19.203l-6.015,1.872C274.368,91.424,288.27,100,303.463,100
				c21.214,0,36.519-13.017,36.519-34.387C339.982,46.557,325.379,33.522,307.049,33.522z"></path>
			<path fill="#FFFFFF" d="M394.452,47.569v-0.281c10.307-1.729,19.477-11.045,19.477-22.072C413.929,7.732,398.89,0,382.837,0
				c-15.615,0-28.799,7.869-33.384,22.059l6.027,1.576c3.729-11.17,13.747-18.346,26.933-18.346
				c13.469,0,24.791,6.307,24.791,20.209c0,11.33-9.615,19.638-24.229,19.638h-13.469v5.298h12.907
				c17.606,0,28.531,9.03,28.531,21.775c0,15.331-14.197,22.355-29.384,22.355c-14.492,0-25.952-6.153-29.668-19.913l-6.156,2.003
				C350.307,92.421,364.924,100,381.7,100c19.313,0,36.098-9.594,36.098-27.79C417.798,58.601,407.204,49.434,394.452,47.569z"></path>
			<polygon fill="#FFFFFF" points="188.932,86.994 155.924,0.949 149.411,0.949 185.959,94.893 186.326,96.069 188.165,96.069 
				191.461,96.069 207.89,51.482 205.018,43.052 			"></polygon>
			<polygon fill="#FFFFFF" points="232.041,86.651 202.386,0.949 195.914,0.949 229.719,96.86 234.298,96.86 268.371,0.949 
				261.922,0.949 			"></polygon>
		</g>
	</g>
</g>
<g id="Layer_1">
</g>
</svg>