<?xml version="1.0" encoding="utf-8"?>
<!-- Generator: Adobe Illustrator 18.1.1, SVG Export Plug-In . SVG Version: 6.00 Build 0)  -->
<svg version="1.1" id="Layer_1" xmlns="http://www.w3.org/2000/svg" xmlns:xlink="http://www.w3.org/1999/xlink" x="0px" y="0px"
	 width="310.2px" height="72.8px" viewBox="0 0 310.2 72.8" enable-background="new 0 0 310.2 72.8" xml:space="preserve">
<g>
	<path fill="#FFFFFF" d="M270.5,20.2c-4,0-7.9,2.2-11,4.6c-1.2-3.1-4.5-4.6-9.8-4.6c-3.7,0-7.4,2-10.4,4.2v1.6
		c3-2.3,6.7-4.3,10.1-4.3c5.5,0,8.1,2,8.1,6v27.8h2.6V27.9c0-0.6-0.1-1.2-0.2-1.8c3-2.4,6.8-4.4,10.3-4.4c5.5,0,8.1,2,8.1,6v27.8
		h2.6V27.9C280.8,22.8,277.3,20.2,270.5,20.2z"/>
	<path fill="#FFFFFF" d="M102.7,54.9c-8.9,0-14.6-6.6-14.6-16.8c0-9.8,6-16.7,14.5-16.7c5.9,0,8.9,1.8,11.1,3.7l0.3,0.2v-1.9
		l-0.1-0.1c-2.3-1.7-5.3-3.2-11.3-3.2c-8.4,0-17.4,6.3-17.4,17.9c0,10.8,7,18.1,17.5,18.1c7,0,11-3,12.4-4.3l0.1-0.1v-1.6l-0.3,0.2
		C112.3,52.7,108.8,54.9,102.7,54.9z"/>
	<path fill="#FFFFFF" d="M169.7,8.5c0-4.8,2.9-7.4,8.2-7.4c3.1,0,5.9,0.8,6.9,1.3l0.3,0.1V1.2l-0.1,0c-1-0.5-3.9-1.2-7.1-1.2
		C171.3,0,167,3.7,167,9.5v11.4l-5.9,0.3v0.9h5.9v33.3h2.7V22.2h10v-1.2h-10V8.5z"/>
	<path fill="#FFFFFF" d="M51.4,20.2c-3.4,0-6.3,1.8-8.4,4v1.5c2.3-2.6,5-4,7.8-4c1.6,0,2.7,0.2,3.5,0.6l0.3,0.2v-1.8l-0.1,0
		C53.6,20.2,52.7,20.2,51.4,20.2z"/>
	<polygon fill="#FFFFFF" points="38.4,55.4 41,55.4 41,20.9 38.4,21 	"/>
	<path fill="#FFFFFF" d="M225.4,20.2c-3.4,0-6.3,1.8-8.4,4v1.5c2.3-2.6,5-4,7.8-4c1.6,0,2.7,0.2,3.5,0.6l0.3,0.2v-1.8l-0.1,0
		C227.6,20.2,226.7,20.2,225.4,20.2z"/>
	<polygon fill="#FFFFFF" points="212.4,55.4 215,55.4 215,20.9 212.4,21 	"/>
	<path fill="#FFFFFF" d="M123.3,33.6h25l0-0.1c0.1-0.4,0.1-0.7,0.1-0.9c0-8.1-4.8-12.4-13.9-12.4c-8,0-16.1,6.2-16.1,18
		c0,10.9,6.8,18,17.3,18c7,0,11.2-3.3,12.7-4.7l0.1-0.1v-1.5l-0.3,0.3c-2.3,2.2-6.3,4.8-12.5,4.8c-9,0-14.4-6.3-14.4-16.8
		c0-1.5,0.1-3,0.3-4.6h0l0.2-1.2h0c1.6-7.1,6.2-11.1,12.7-11.1c9.1,0,11,4.4,11.1,11.1h-22.2V33.6z"/>
	<path fill="#FFFFFF" d="M300.6,36.8c-0.4-0.2-0.8-0.3-1.2-0.5c-5.2-2.3-8.4-4.5-8.4-8.3c0-4.3,3-6.6,8.6-6.6c3,0,6.2,0.8,8.5,2.1
		l0.3,0.2V22l-0.1,0c-2.5-1.3-5.1-1.8-8.7-1.8c-6.7,0-10.7,3.2-10.7,8.7c0,5.5,4.4,7.5,9.6,9.8c0.4,0.2,0.8,0.4,1.2,0.5
		c4.6,2.1,8.3,3.7,8.3,8.3c0,4.7-3.5,7.6-9.2,7.6c-4.3,0-8.2-1.1-10.5-3l-0.3-0.2v1.9l0.1,0.1c2.4,1.5,6.4,2.5,10.7,2.5
		c7,0,11.5-3.8,11.5-9.6C310.2,41,306.2,39.2,300.6,36.8z"/>
	<polygon fill="#FFFFFF" points="234.6,55.4 237.1,55.4 237.1,20.8 234.6,21 	"/>
	<path fill="#FFFFFF" d="M69.6,20.2L69.6,20.2c-3.1-0.2-6.4,0.7-9,2.8c-1,0.9-1.6,1.5-1.9,2.3l-0.1,0.1l1.2,1.4l0.1-0.3
		c0.3-0.8,0.9-1.7,2.1-2.8c1.8-1.7,4.3-2.4,7.2-2.4c0.3,0,0.6,0,0.9,0c0.1,0,0.3,0,0.4,0l0,0c4.6,0.3,6.4,1.8,6.4,5h0V33h0v15h0v1.3
		c-1.7,2.3-6.2,5.6-11.1,5.6c-5,0-7.4-2.2-7.4-6.7c0-5,2.2-6.7,7.4-8.7c4.2-1.6,7.3-3.1,9.3-4.5v-1.4c-2.4,2-6.2,3.6-9.3,4.8
		c-6,2.4-10,3.9-10,9.9c0,5.2,3.3,7.9,9.6,7.9c4.6,0,9.5-2.8,11.7-5.4v4.7h2.7v-5.2v-1V26.9C79.7,22.6,76.5,20.5,69.6,20.2z"/>
	<path fill="#FFFFFF" d="M195.5,20.2L195.5,20.2c-3.1-0.2-6.4,0.7-9,2.8c-1,0.9-1.6,1.5-1.9,2.3l-0.1,0.1l1.2,1.4l0.1-0.3
		c0.3-0.8,0.9-1.7,2.1-2.8c1.8-1.7,4.3-2.4,7.2-2.4c0.3,0,0.6,0,0.9,0c0.1,0,0.3,0,0.4,0l0,0c4.6,0.3,6.4,1.8,6.4,5h0V33h0v15h0v1.3
		c-1.7,2.3-6.2,5.6-11.1,5.6c-5,0-7.4-2.2-7.4-6.7c0-5,2.2-6.7,7.4-8.7c4.2-1.6,7.3-3.1,9.3-4.5v-1.4c-2.4,2-6.2,3.6-9.3,4.8
		c-6,2.4-10,3.9-10,9.9c0,5.2,3.3,7.9,9.6,7.9c4.6,0,9.5-2.8,11.7-5.4v4.7h2.7v-5.2v-1V26.9C205.7,22.6,202.4,20.5,195.5,20.2z"/>
	<path fill="#FFFFFF" d="M32.4,20.7c-0.8-0.3-1.5-0.4-2.8-0.4c-2.5,0-4.8,1.1-6.6,2.6h0.2V24c1.8-1.6,3.8-2.6,5.8-2.6
		c1.5,0,2.6,0.2,3.3,0.6l0.2,0.1v-1.4L32.4,20.7z"/>
	<path fill="#FFFFFF" d="M24.1,52.8c-0.6,0-1.8-0.1-3.3-0.1c-3.3-0.1-7.9-0.2-9.7-0.3c-3.2-0.2-4.6-1.3-4.6-3.7
		c0-1.9,1.3-4.2,7.5-4.4c0.7,0.1,1.3,0.1,2.1,0.1c7.3,0,12.7-5.1,12.7-12.1c0-3.9-1.7-7.3-4.6-9.5l0,0l-1-0.7c0,0,0,0,0,0
		c-1.9-1.2-4.4-1.9-7-1.9c-7.3,0-12.6,5.1-12.6,12.1c0,4.9,2.8,9.1,7.1,11c-3.9,0.8-6.4,3.2-6.4,6c0,2.3,0.8,5,6.7,5.4
		c1.9,0.1,4.3,0.2,6.6,0.2c2.3,0.1,4.7,0.1,6.5,0.2c5.6,0.3,7.9,2.3,7.9,7c0,2.8-1.5,9.4-15.8,9.4c-8.7,0-14.3-3.5-14.3-8.8
		c0-1.6,1-3.9,2.1-4.7l0.4-0.3H2.8l0,0C1.5,58.5,0,60.9,0,63c0,6,6.4,9.9,16.2,9.9c11.1,0,18-4.3,18-11.1
		C34.2,55.9,31.1,53.2,24.1,52.8z M6.3,32.3c0-6.7,3.8-10.8,9.9-10.8c6.1,0,10,4.2,10,10.8c0,6.6-3.8,10.8-10,10.8
		C10.1,43,6.3,38.9,6.3,32.3z"/>
</g>
</svg>
